<?xml version="1.0" encoding="UTF-8"?>
<svg xmlns="http://www.w3.org/2000/svg" width="180.3mm" height="289.6mm" viewBox="0 0 180.3 289.6">
<metadata>{"schemaVersion":"2.0","sheetId":"sheet-1","units":"mm"}</metadata>
<g id="operation-engrave" data-operation="engrave" data-operation-label="Engrave filled areas" stroke-linejoin="miter"></g>
<g id="operation-score" data-operation="score" data-operation-label="Score centerlines" stroke-linejoin="miter"><g id="operation-score--part-foundation-panel" data-part-id="foundation-panel"><path id="foundation-panel-score-foundation-panel-label-1" data-part-id="foundation-panel" data-feature-id="foundation-panel-label-1" data-source-nominal-hash="4e37573df1b22f0cde53f1d98ef3495f3addef443018393f29a3689df2c9138a" d="M111.075 239.525 L119.075 239.525" fill="none" stroke="#0066ff" stroke-width="0.1" vector-effect="non-scaling-stroke"/></g><g id="operation-score--part-front-panel" data-part-id="front-panel"><path id="front-panel-score-front-panel-label-1" data-part-id="front-panel" data-feature-id="front-panel-label-1" data-source-nominal-hash="a2a8fc98d7a9b92b092b02717b0f473459a112784c84e173519403dd85f1d57e" d="M105.075 162.625 L113.075 162.625" fill="none" stroke="#0066ff" stroke-width="0.1" vector-effect="non-scaling-stroke"/><path id="front-panel-score-front-panel-label-2" data-part-id="front-panel" data-feature-id="front-panel-label-2" data-source-nominal-hash="a2a8fc98d7a9b92b092b02717b0f473459a112784c84e173519403dd85f1d57e" d="M105.075 161.125 L113.075 161.125" fill="none" stroke="#0066ff" stroke-width="0.1" vector-effect="non-scaling-stroke"/><path id="front-panel-score-front-panel-surface-line-1" data-part-id="front-panel" data-feature-id="front-panel-surface-line-1" data-source-nominal-hash="a2a8fc98d7a9b92b092b02717b0f473459a112784c84e173519403dd85f1d57e" d="M14.075 172.625 L92.075 172.625" fill="none" stroke="#0066ff" stroke-width="0.1" vector-effect="non-scaling-stroke"/><path id="front-panel-score-front-panel-surface-line-2" data-part-id="front-panel" data-feature-id="front-panel-surface-line-2" data-source-nominal-hash="a2a8fc98d7a9b92b092b02717b0f473459a112784c84e173519403dd85f1d57e" d="M14.075 161.875 L92.075 161.875" fill="none" stroke="#0066ff" stroke-width="0.1" vector-effect="non-scaling-stroke"/><path id="front-panel-score-front-panel-surface-line-3" data-part-id="front-panel" data-feature-id="front-panel-surface-line-3" data-source-nominal-hash="a2a8fc98d7a9b92b092b02717b0f473459a112784c84e173519403dd85f1d57e" d="M14.075 151.125 L92.075 151.125" fill="none" stroke="#0066ff" stroke-width="0.1" vector-effect="non-scaling-stroke"/></g><g id="operation-score--part-left-panel" data-part-id="left-panel"><path id="left-panel-score-left-panel-label-1" data-part-id="left-panel" data-feature-id="left-panel-label-1" data-source-nominal-hash="2949baf82d9a99866228ab0e7046e6be51e9fc456e1f22db4da834ae8e666fe6" d="M75.075 37.825 L83.075 37.825" fill="none" stroke="#0066ff" stroke-width="0.1" vector-effect="non-scaling-stroke"/><path id="left-panel-score-left-panel-label-2" data-part-id="left-panel" data-feature-id="left-panel-label-2" data-source-nominal-hash="2949baf82d9a99866228ab0e7046e6be51e9fc456e1f22db4da834ae8e666fe6" d="M75.075 36.325 L83.075 36.325" fill="none" stroke="#0066ff" stroke-width="0.1" vector-effect="non-scaling-stroke"/><path id="left-panel-score-left-panel-label-3" data-part-id="left-panel" data-feature-id="left-panel-label-3" data-source-nominal-hash="2949baf82d9a99866228ab0e7046e6be51e9fc456e1f22db4da834ae8e666fe6" d="M75.075 34.825 L83.075 34.825" fill="none" stroke="#0066ff" stroke-width="0.1" vector-effect="non-scaling-stroke"/><path id="left-panel-score-left-panel-label-4" data-part-id="left-panel" data-feature-id="left-panel-label-4" data-source-nominal-hash="2949baf82d9a99866228ab0e7046e6be51e9fc456e1f22db4da834ae8e666fe6" d="M75.075 33.325 L83.075 33.325" fill="none" stroke="#0066ff" stroke-width="0.1" vector-effect="non-scaling-stroke"/><path id="left-panel-score-left-panel-surface-line-1" data-part-id="left-panel" data-feature-id="left-panel-surface-line-1" data-source-nominal-hash="2949baf82d9a99866228ab0e7046e6be51e9fc456e1f22db4da834ae8e666fe6" d="M14.075 46.325 L62.075 46.325" fill="none" stroke="#0066ff" stroke-width="0.1" vector-effect="non-scaling-stroke"/><path id="left-panel-score-left-panel-surface-line-2" data-part-id="left-panel" data-feature-id="left-panel-surface-line-2" data-source-nominal-hash="2949baf82d9a99866228ab0e7046e6be51e9fc456e1f22db4da834ae8e666fe6" d="M14.075 35.575 L62.075 35.575" fill="none" stroke="#0066ff" stroke-width="0.1" vector-effect="non-scaling-stroke"/><path id="left-panel-score-left-panel-surface-line-3" data-part-id="left-panel" data-feature-id="left-panel-surface-line-3" data-source-nominal-hash="2949baf82d9a99866228ab0e7046e6be51e9fc456e1f22db4da834ae8e666fe6" d="M14.075 24.825 L62.075 24.825" fill="none" stroke="#0066ff" stroke-width="0.1" vector-effect="non-scaling-stroke"/></g><g id="operation-score--part-rear-panel" data-part-id="rear-panel"><path id="rear-panel-score-rear-panel-label-1" data-part-id="rear-panel" data-feature-id="rear-panel-label-1" data-source-nominal-hash="980b0c4f34dea573ffcc6255f2719cea8bcd5dfc9fed1d80e9dd5b47fc916aee" d="M105.075 100.225 L113.075 100.225" fill="none" stroke="#0066ff" stroke-width="0.1" vector-effect="non-scaling-stroke"/><path id="rear-panel-score-rear-panel-label-2" data-part-id="rear-panel" data-feature-id="rear-panel-label-2" data-source-nominal-hash="980b0c4f34dea573ffcc6255f2719cea8bcd5dfc9fed1d80e9dd5b47fc916aee" d="M105.075 98.725 L113.075 98.725" fill="none" stroke="#0066ff" stroke-width="0.1" vector-effect="non-scaling-stroke"/><path id="rear-panel-score-rear-panel-label-3" data-part-id="rear-panel" data-feature-id="rear-panel-label-3" data-source-nominal-hash="980b0c4f34dea573ffcc6255f2719cea8bcd5dfc9fed1d80e9dd5b47fc916aee" d="M105.075 97.225 L113.075 97.225" fill="none" stroke="#0066ff" stroke-width="0.1" vector-effect="non-scaling-stroke"/><path id="rear-panel-score-rear-panel-surface-line-1" data-part-id="rear-panel" data-feature-id="rear-panel-surface-line-1" data-source-nominal-hash="980b0c4f34dea573ffcc6255f2719cea8bcd5dfc9fed1d80e9dd5b47fc916aee" d="M14.075 109.475 L92.075 109.475" fill="none" stroke="#0066ff" stroke-width="0.1" vector-effect="non-scaling-stroke"/><path id="rear-panel-score-rear-panel-surface-line-2" data-part-id="rear-panel" data-feature-id="rear-panel-surface-line-2" data-source-nominal-hash="980b0c4f34dea573ffcc6255f2719cea8bcd5dfc9fed1d80e9dd5b47fc916aee" d="M14.075 98.725 L92.075 98.725" fill="none" stroke="#0066ff" stroke-width="0.1" vector-effect="non-scaling-stroke"/><path id="rear-panel-score-rear-panel-surface-line-3" data-part-id="rear-panel" data-feature-id="rear-panel-surface-line-3" data-source-nominal-hash="980b0c4f34dea573ffcc6255f2719cea8bcd5dfc9fed1d80e9dd5b47fc916aee" d="M14.075 87.975 L92.075 87.975" fill="none" stroke="#0066ff" stroke-width="0.1" vector-effect="non-scaling-stroke"/></g><g id="operation-score--part-right-panel" data-part-id="right-panel"><path id="right-panel-score-right-panel-label-1" data-part-id="right-panel" data-feature-id="right-panel-label-1" data-source-nominal-hash="75868e9f734dbb92bbd9fd849f623d92b3a023f43aa244f960275505deab043c" d="M161.225 38.575 L169.225 38.575" fill="none" stroke="#0066ff" stroke-width="0.1" vector-effect="non-scaling-stroke"/><path id="right-panel-score-right-panel-label-2" data-part-id="right-panel" data-feature-id="right-panel-label-2" data-source-nominal-hash="75868e9f734dbb92bbd9fd849f623d92b3a023f43aa244f960275505deab043c" d="M161.225 37.075 L169.225 37.075" fill="none" stroke="#0066ff" stroke-width="0.1" vector-effect="non-scaling-stroke"/><path id="right-panel-score-right-panel-label-3" data-part-id="right-panel" data-feature-id="right-panel-label-3" data-source-nominal-hash="75868e9f734dbb92bbd9fd849f623d92b3a023f43aa244f960275505deab043c" d="M161.225 35.575 L169.225 35.575" fill="none" stroke="#0066ff" stroke-width="0.1" vector-effect="non-scaling-stroke"/><path id="right-panel-score-right-panel-label-4" data-part-id="right-panel" data-feature-id="right-panel-label-4" data-source-nominal-hash="75868e9f734dbb92bbd9fd849f623d92b3a023f43aa244f960275505deab043c" d="M161.225 34.075 L169.225 34.075" fill="none" stroke="#0066ff" stroke-width="0.1" vector-effect="non-scaling-stroke"/><path id="right-panel-score-right-panel-label-5" data-part-id="right-panel" data-feature-id="right-panel-label-5" data-source-nominal-hash="75868e9f734dbb92bbd9fd849f623d92b3a023f43aa244f960275505deab043c" d="M161.225 32.575 L169.225 32.575" fill="none" stroke="#0066ff" stroke-width="0.1" vector-effect="non-scaling-stroke"/><path id="right-panel-score-right-panel-surface-line-1" data-part-id="right-panel" data-feature-id="right-panel-surface-line-1" data-source-nominal-hash="75868e9f734dbb92bbd9fd849f623d92b3a023f43aa244f960275505deab043c" d="M100.225 46.325 L148.225 46.325" fill="none" stroke="#0066ff" stroke-width="0.1" vector-effect="non-scaling-stroke"/><path id="right-panel-score-right-panel-surface-line-2" data-part-id="right-panel" data-feature-id="right-panel-surface-line-2" data-source-nominal-hash="75868e9f734dbb92bbd9fd849f623d92b3a023f43aa244f960275505deab043c" d="M100.225 35.575 L148.225 35.575" fill="none" stroke="#0066ff" stroke-width="0.1" vector-effect="non-scaling-stroke"/><path id="right-panel-score-right-panel-surface-line-3" data-part-id="right-panel" data-feature-id="right-panel-surface-line-3" data-source-nominal-hash="75868e9f734dbb92bbd9fd849f623d92b3a023f43aa244f960275505deab043c" d="M100.225 24.825 L148.225 24.825" fill="none" stroke="#0066ff" stroke-width="0.1" vector-effect="non-scaling-stroke"/></g></g>
<g id="operation-cut" data-operation="cut" data-operation-label="Cut contours" stroke-linejoin="miter"><g id="operation-cut--part-foundation-panel" data-part-id="foundation-panel"><path id="foundation-panel-cut-hole-0" data-part-id="foundation-panel" data-feature-id="seat-rear-panel-slot-1" data-source-nominal-hash="4e37573df1b22f0cde53f1d98ef3495f3addef443018393f29a3689df2c9138a" d="M40.35 200.525 L21.8 200.525 L21.8 197.525 L40.35 197.525 Z" fill="none" stroke="#ff0000" stroke-width="0.1" vector-effect="non-scaling-stroke"/><path id="foundation-panel-cut-hole-1" data-part-id="foundation-panel" data-feature-id="seat-rear-panel-slot-2" data-source-nominal-hash="4e37573df1b22f0cde53f1d98ef3495f3addef443018393f29a3689df2c9138a" d="M74.35 200.525 L55.8 200.525 L55.8 197.525 L74.35 197.525 Z" fill="none" stroke="#ff0000" stroke-width="0.1" vector-effect="non-scaling-stroke"/><path id="foundation-panel-cut-hole-2" data-part-id="foundation-panel" data-feature-id="seat-rear-panel-slot-3" data-source-nominal-hash="4e37573df1b22f0cde53f1d98ef3495f3addef443018393f29a3689df2c9138a" d="M108.35 200.525 L89.8 200.525 L89.8 197.525 L108.35 197.525 Z" fill="none" stroke="#ff0000" stroke-width="0.1" vector-effect="non-scaling-stroke"/><path id="foundation-panel-cut-hole-3" data-part-id="foundation-panel" data-feature-id="seat-left-panel-slot-1" data-source-nominal-hash="4e37573df1b22f0cde53f1d98ef3495f3addef443018393f29a3689df2c9138a" d="M11.075 270.05 L8.075 270.05 L8.075 257 L11.075 257 Z" fill="none" stroke="#ff0000" stroke-width="0.1" vector-effect="non-scaling-stroke"/><path id="foundation-panel-cut-hole-4" data-part-id="foundation-panel" data-feature-id="seat-left-panel-slot-2" data-source-nominal-hash="4e37573df1b22f0cde53f1d98ef3495f3addef443018393f29a3689df2c9138a" d="M11.075 246.05 L8.075 246.05 L8.075 233 L11.075 233 Z" fill="none" stroke="#ff0000" stroke-width="0.1" vector-effect="non-scaling-stroke"/><path id="foundation-panel-cut-hole-5" data-part-id="foundation-panel" data-feature-id="seat-left-panel-slot-3" data-source-nominal-hash="4e37573df1b22f0cde53f1d98ef3495f3addef443018393f29a3689df2c9138a" d="M11.075 222.05 L8.075 222.05 L8.075 209 L11.075 209 Z" fill="none" stroke="#ff0000" stroke-width="0.1" vector-effect="non-scaling-stroke"/><path id="foundation-panel-cut-hole-6" data-part-id="foundation-panel" data-feature-id="seat-right-panel-slot-1" data-source-nominal-hash="4e37573df1b22f0cde53f1d98ef3495f3addef443018393f29a3689df2c9138a" d="M122.075 270.05 L119.075 270.05 L119.075 257 L122.075 257 Z" fill="none" stroke="#ff0000" stroke-width="0.1" vector-effect="non-scaling-stroke"/><path id="foundation-panel-cut-hole-7" data-part-id="foundation-panel" data-feature-id="seat-right-panel-slot-2" data-source-nominal-hash="4e37573df1b22f0cde53f1d98ef3495f3addef443018393f29a3689df2c9138a" d="M122.075 246.05 L119.075 246.05 L119.075 233 L122.075 233 Z" fill="none" stroke="#ff0000" stroke-width="0.1" vector-effect="non-scaling-stroke"/><path id="foundation-panel-cut-hole-8" data-part-id="foundation-panel" data-feature-id="seat-right-panel-slot-3" data-source-nominal-hash="4e37573df1b22f0cde53f1d98ef3495f3addef443018393f29a3689df2c9138a" d="M122.075 222.05 L119.075 222.05 L119.075 209 L122.075 209 Z" fill="none" stroke="#ff0000" stroke-width="0.1" vector-effect="non-scaling-stroke"/><path id="foundation-panel-cut-hole-9" data-part-id="foundation-panel" data-feature-id="seat-front-panel-slot-1" data-source-nominal-hash="4e37573df1b22f0cde53f1d98ef3495f3addef443018393f29a3689df2c9138a" d="M40.35 281.525 L21.8 281.525 L21.8 278.525 L40.35 278.525 Z" fill="none" stroke="#ff0000" stroke-width="0.1" vector-effect="non-scaling-stroke"/><path id="foundation-panel-cut-hole-10" data-part-id="foundation-panel" data-feature-id="seat-front-panel-slot-2" data-source-nominal-hash="4e37573df1b22f0cde53f1d98ef3495f3addef443018393f29a3689df2c9138a" d="M74.35 281.525 L55.8 281.525 L55.8 278.525 L74.35 278.525 Z" fill="none" stroke="#ff0000" stroke-width="0.1" vector-effect="non-scaling-stroke"/><path id="foundation-panel-cut-hole-11" data-part-id="foundation-panel" data-feature-id="seat-front-panel-slot-3" data-source-nominal-hash="4e37573df1b22f0cde53f1d98ef3495f3addef443018393f29a3689df2c9138a" d="M108.35 281.525 L89.8 281.525 L89.8 278.525 L108.35 278.525 Z" fill="none" stroke="#ff0000" stroke-width="0.1" vector-effect="non-scaling-stroke"/><path id="foundation-panel-cut-outer" data-part-id="foundation-panel" data-feature-id="foundation-panel-boundary" data-source-nominal-hash="4e37573df1b22f0cde53f1d98ef3495f3addef443018393f29a3689df2c9138a" d="M125.15 194.45 L5 194.45 L5 284.6 L125.15 284.6 Z" fill="none" stroke="#ff0000" stroke-width="0.1" vector-effect="non-scaling-stroke"/></g><g id="operation-cut--part-front-panel" data-part-id="front-panel"><path id="front-panel-cut-outer" data-part-id="front-panel" data-feature-id="front-panel-boundary" data-source-nominal-hash="a2a8fc98d7a9b92b092b02717b0f473459a112784c84e173519403dd85f1d57e" d="M37.5 189.45 L52.65 189.45 L52.65 192.45 L71.5 192.45 L71.5 189.45 L86.65 189.45 L86.65 192.45 L105.5 192.45 L105.5 189.45 L119.15 189.45 L119.15 181.052 L116.15 181.052 L116.15 172.841 L119.15 172.841 L119.15 164.48 L116.15 164.48 L116.15 156.27 L119.15 156.27 L119.15 147.909 L116.15 147.909 L116.15 139.698 L119.15 139.698 L119.15 131.3 L5 131.3 L5 139.698 L8 139.698 L8 147.909 L5 147.909 L5 156.27 L8 156.27 L8 164.48 L5 164.48 L5 172.841 L8 172.841 L8 181.052 L5 181.052 L5 189.45 L18.65 189.45 L18.65 192.45 L37.5 192.45 Z" fill="none" stroke="#ff0000" stroke-width="0.1" vector-effect="non-scaling-stroke"/></g><g id="operation-cut--part-left-panel" data-part-id="left-panel"><path id="left-panel-cut-outer" data-part-id="left-panel" data-feature-id="left-panel-boundary" data-source-nominal-hash="2949baf82d9a99866228ab0e7046e6be51e9fc456e1f22db4da834ae8e666fe6" d="M29.75 63.15 L40.4 63.15 L40.4 66.15 L53.75 66.15 L53.75 63.15 L64.4 63.15 L64.4 66.15 L77.75 66.15 L77.75 63.15 L86.15 63.15 L86.15 54.827 L89.15 54.827 L89.15 46.466 L86.15 46.466 L86.15 38.255 L89.15 38.255 L89.15 29.895 L86.15 29.895 L86.15 21.684 L89.15 21.684 L89.15 13.323 L86.15 13.323 L86.15 5 L8 5 L8 13.323 L5 13.323 L5 21.684 L8 21.684 L8 29.895 L5 29.895 L5 38.255 L8 38.255 L8 46.466 L5 46.466 L5 54.827 L8 54.827 L8 63.15 L16.4 63.15 L16.4 66.15 L29.75 66.15 Z" fill="none" stroke="#ff0000" stroke-width="0.1" vector-effect="non-scaling-stroke"/></g><g id="operation-cut--part-rear-panel" data-part-id="rear-panel"><path id="rear-panel-cut-outer" data-part-id="rear-panel" data-feature-id="rear-panel-boundary" data-source-nominal-hash="980b0c4f34dea573ffcc6255f2719cea8bcd5dfc9fed1d80e9dd5b47fc916aee" d="M37.5 126.3 L52.65 126.3 L52.65 129.3 L71.5 129.3 L71.5 126.3 L86.65 126.3 L86.65 129.3 L105.5 129.3 L105.5 126.3 L119.15 126.3 L119.15 117.902 L116.15 117.902 L116.15 109.691 L119.15 109.691 L119.15 101.33 L116.15 101.33 L116.15 93.12 L119.15 93.12 L119.15 84.759 L116.15 84.759 L116.15 76.548 L119.15 76.548 L119.15 68.15 L5 68.15 L5 76.548 L8 76.548 L8 84.759 L5 84.759 L5 93.12 L8 93.12 L8 101.33 L5 101.33 L5 109.691 L8 109.691 L8 117.902 L5 117.902 L5 126.3 L18.65 126.3 L18.65 129.3 L37.5 129.3 Z" fill="none" stroke="#ff0000" stroke-width="0.1" vector-effect="non-scaling-stroke"/></g><g id="operation-cut--part-right-panel" data-part-id="right-panel"><path id="right-panel-cut-outer" data-part-id="right-panel" data-feature-id="right-panel-boundary" data-source-nominal-hash="75868e9f734dbb92bbd9fd849f623d92b3a023f43aa244f960275505deab043c" d="M115.9 63.15 L126.55 63.15 L126.55 66.15 L139.9 66.15 L139.9 63.15 L150.55 63.15 L150.55 66.15 L163.9 66.15 L163.9 63.15 L172.3 63.15 L172.3 54.827 L175.3 54.827 L175.3 46.466 L172.3 46.466 L172.3 38.255 L175.3 38.255 L175.3 29.895 L172.3 29.895 L172.3 21.684 L175.3 21.684 L175.3 13.323 L172.3 13.323 L172.3 5 L94.15 5 L94.15 13.323 L91.15 13.323 L91.15 21.684 L94.15 21.684 L94.15 29.895 L91.15 29.895 L91.15 38.255 L94.15 38.255 L94.15 46.466 L91.15 46.466 L91.15 54.827 L94.15 54.827 L94.15 63.15 L102.55 63.15 L102.55 66.15 L115.9 66.15 Z" fill="none" stroke="#ff0000" stroke-width="0.1" vector-effect="non-scaling-stroke"/></g></g>
</svg>
